<svg version="1.1" id="Layer_1" xmlns="http://www.w3.org/2000/svg" xmlns:xlink="http://www.w3.org/1999/xlink" x="0px" y="0px"
	 width="100%" viewBox="0 0 96 96" enable-background="new 0 0 96 96" xml:space="preserve">
<path fill="transparent" opacity="1.000000" stroke="none" 
	d="
M57.000000,97.000000 
	C38.000004,97.000000 19.500011,97.000000 1.000012,97.000000 
	C1.000008,65.000015 1.000008,33.000031 1.000004,1.000023 
	C31.833307,1.000000 62.666851,1.053212 93.499542,0.915199 
	C96.483612,0.901842 97.099098,1.515678 97.084991,4.500327 
	C96.944748,34.166325 96.944786,63.833500 97.084953,93.499496 
	C97.099052,96.483643 96.490891,97.142509 93.498512,97.088860 
	C81.502327,96.873833 69.500038,97.000000 57.000000,97.000000 
z"/>
<path fill="#42A3EF" opacity="1.000000" stroke="none" 
	d="
M9.504149,43.344872 
	C8.467514,41.181107 9.432527,39.634251 10.285491,38.369488 
	C15.808625,30.179884 21.202497,21.917620 26.257317,13.424252 
	C28.345783,9.915104 31.855551,10.558395 35.092686,11.581943 
	C41.096466,13.480272 47.067104,15.485065 53.035194,17.494083 
	C57.596615,19.029581 58.316879,21.507711 55.102398,25.291103 
	C50.223557,31.033411 45.186134,36.640984 40.147350,42.633457 
	C39.320038,44.482330 37.967449,45.020435 36.394337,45.098328 
	C28.417250,45.493320 20.439623,45.624275 12.466187,45.010441 
	C11.433683,44.930954 10.553029,44.486652 9.504149,43.344872 
z"/>
<path fill="#2C7BD3" opacity="1.000000" stroke="none" 
	d="
M9.097702,43.346523 
	C19.153561,42.973022 29.143097,42.977127 39.605629,42.971176 
	C49.076084,42.965359 58.073544,42.969593 67.535500,42.907448 
	C70.094376,41.968403 72.159523,40.645569 74.684952,42.841278 
	C69.600769,48.882015 62.825489,52.768120 57.119450,57.952450 
	C55.659954,59.278503 54.146885,60.545586 52.347897,61.979134 
	C49.165203,66.045204 45.862080,66.538635 41.349052,63.341644 
	C31.602364,57.939842 22.026924,52.910366 12.493646,47.802204 
	C10.870165,46.932308 8.554650,46.458630 9.097702,43.346523 
z"/>
<path fill="#5D6062" opacity="1.000000" stroke="none" 
	d="
M58.844769,66.983940 
	C66.095421,61.348045 73.109375,61.290051 78.189529,66.701790 
	C81.366669,70.086304 82.160698,77.664955 79.741699,81.516426 
	C76.790146,86.215828 70.737717,88.378021 64.860352,86.832718 
	C60.513798,85.689903 57.060181,80.699348 57.005932,75.480011 
	C56.993843,74.316895 56.988140,73.153709 56.949379,71.554153 
	C56.759346,69.517311 56.772675,67.984230 58.844769,66.983940 
z"/>
<path fill="#5D6062" opacity="1.000000" stroke="none" 
	d="
M33.084694,75.729202 
	C32.808716,85.467354 30.825750,87.699066 23.368900,86.969124 
	C18.694901,86.511581 16.953861,83.671776 16.987539,79.228233 
	C17.029118,73.742516 18.694349,71.372322 23.321011,71.073837 
	C25.246973,70.949585 27.287907,70.535614 29.510048,71.748215 
	C31.835108,72.220490 33.247776,73.053871 33.084694,75.729202 
z"/>
<path fill="#B0C5D5" opacity="1.000000" stroke="none" 
	d="
M33.392906,75.966782 
	C32.085522,74.917168 31.088730,73.724876 29.984524,72.213150 
	C33.534519,69.139938 37.191925,66.386147 41.006462,63.314102 
	C44.655369,63.807018 48.207996,65.318169 51.693886,62.114418 
	C54.299160,63.504631 56.560959,64.890755 59.017094,66.567795 
	C59.336311,68.448616 58.270061,69.518417 57.220760,70.922516 
	C46.998051,65.446510 47.029446,65.487663 38.214397,72.212845 
	C36.679031,73.384201 34.944500,74.286919 33.392906,75.966782 
z"/>
<path fill="#B1C6D6" opacity="1.000000" stroke="none" 
	d="
M75.265259,43.088619 
	C72.918404,43.155827 70.892967,43.052837 68.433762,42.895462 
	C72.742081,38.977955 77.484169,35.114845 82.539658,31.127396 
	C84.895386,31.201727 85.958069,32.337063 86.056213,34.743340 
	C82.552589,37.714031 79.069633,40.316227 75.265259,43.088619 
z"/>
<path fill="#1D5BB8" opacity="1.000000" stroke="none" 
	d="
M86.442200,35.066761 
	C84.669365,34.275719 83.496582,33.272072 82.945023,31.326815 
	C82.764389,27.743469 84.505203,26.809652 87.531021,26.956396 
	C90.062050,27.079144 90.937416,28.165943 91.045372,30.605076 
	C91.182732,33.708050 90.142914,35.346054 86.442200,35.066761 
z"/>
<path fill="#F4F4F4" opacity="1.000000" stroke="none" 
	d="
M65.242584,67.977585 
	C71.268951,66.286583 75.391167,68.173119 76.736679,72.912140 
	C77.900192,77.010132 75.355499,81.469833 71.146240,82.709663 
	C67.049255,83.916428 62.488495,81.439720 61.329750,77.207909 
	C60.280827,73.377190 61.674015,70.369026 65.242584,67.977585 
z"/>
<path fill="#F5F5F5" opacity="1.000000" stroke="none" 
	d="
M23.501667,82.642487 
	C20.914381,80.909821 20.215902,78.968636 21.924356,76.632126 
	C22.985712,75.180595 24.542067,74.568054 26.264172,75.257637 
	C28.090776,75.989059 29.299370,77.452034 28.891367,79.477005 
	C28.361618,82.106232 26.607630,83.335228 23.501667,82.642487 
z"/>
<path fill="#66696B" opacity="1.000000" stroke="none" 
	d="
M65.064987,75.004608 
	C65.672516,72.231468 67.098259,70.793747 69.671608,71.157272 
	C71.488525,71.413940 72.593300,72.716110 72.875801,74.499596 
	C73.170883,76.362556 72.237343,77.828812 70.587502,78.493561 
	C67.603493,79.695869 65.893959,78.224800 65.064987,75.004608 
z"/>
</svg>